# xmcd
#
# Track frame offsets:
#	150
#	18101
#	32531
#	45844
#	66974
#	83531
#	101271
#
# Disc length: 1643 seconds
#
# Revision: 1
# Processed by: cddbd v1.5.2PL0 Copyright (c) Steve Scherf et al.
# Submitted via: EasyCDDAExtractor 16.0.6.1
#
DISCID=3d066907
DTITLE=Toninho e Jonas - Canção Nova Sertaneja - Mãos Calejadas
DYEAR=2011
DGENRE=Country
TTITLE0=Bença pai, bença mãe
TTITLE1=Reza, confia e espera
TTITLE2=Quem é esse menino?
TTITLE3=Mãos calejadas
TTITLE4=Dependente
TTITLE5=Hoje te trago um recado
TTITLE6=És precioso
EXTD=
EXTT0=
EXTT1=
EXTT2=
EXTT3=
EXTT4=
EXTT5=
EXTT6=
PLAYORDER=
